<?xml version="1.0" standalone="yes"?>
<svg xmlns="http://www.w3.org/2000/svg" width="1280" height="720">
<path style="fill:#0c4160; stroke:none;" d="M0 0L0 337C9.1467 327.441 15.7115 314.457 24.0031 304C40.1302 283.66 58.249 264.969 77 247.039C133.811 192.717 199.288 147.484 262 100.373C286.974 81.6127 312.561 61.727 333 38C342.012 27.5379 352.374 14.3604 353 0L0 0z"/>
<path style="fill:#2e556e; stroke:none;" d="M353 0L353 3C353.696 1.44629 353.696 1.55377 353 0z"/>
<path style="fill:#586e80; stroke:none;" d="M354 0C349.977 15.0428 341.282 27.3246 331.271 39C313.586 59.6246 291.361 76.7814 270 93.4244C203.727 145.059 131.666 191.43 72 251C52.2267 270.742 33.1247 290.57 16.3742 313C9.9742 321.57 0.267953 331.864 0 343C11.8098 332.253 18.1423 315.103 27.3835 302.285C41.0555 283.322 59.3088 265.992 76.3248 250.117C93.8047 233.809 112.41 219.142 130.87 204C135.576 200.139 139.468 195.547 144.095 191.671C168.978 170.822 195.774 151.784 222 132.64C241.85 118.151 262.817 105.358 282 90C289.839 83.7239 295.958 75.9644 303.429 69.2354C317.677 56.4022 331.972 44.0796 342.831 27.9854C347.381 21.2416 357.347 8.66089 354 0z"/>
<path style="fill:#61788c; stroke:none;" d="M355 0C353.927 10.707 347.995 19.3384 342.169 27.9854C327.804 49.3056 306.793 65.6505 288.776 83.5648C283.779 88.5334 276.578 91.8158 273 98C281.589 95.0809 290.394 86.218 297.31 80.2785C307.727 71.3327 319.441 62.8373 328.96 52.9954C334.629 47.1335 339.324 39.6718 344.163 33.0856C350.34 24.678 359.627 11.0317 355 0z"/>
<path style="fill:#657d92; stroke:none;" d="M356 0C355.953 16.9312 347.652 27.4265 337.746 40.2855C333.545 45.7391 330.222 51.2059 325.001 55.8712C318.959 61.2692 312.125 65.8409 306.269 71.4275C289.831 87.1108 270.569 98.7081 252.819 112.618C225.793 133.797 198.481 154.868 170.997 175.522C164.916 180.092 158.068 183.527 152.09 188.043C145.753 192.829 141 199.189 134.942 203.985C127.542 209.845 116.654 216.587 112 225C125.965 219.011 137.122 206.715 148.094 196.593C159.911 185.693 173.487 176.781 186.014 166.814C200.55 155.248 216.057 145.057 231 134.115C239.889 127.606 248.216 119.575 257.325 113.529C262.39 110.167 268.76 108.683 274.001 105.341C281.689 100.438 287.546 93.9373 294.443 88.2192C302.245 81.7512 309.963 75.676 317.259 68.6111C321.23 64.7664 326.047 61.9396 329.91 57.9606C340.485 47.0679 347.406 35.3906 354.269 22.0146C358.314 14.13 361.975 9.25085 362 0L356 0z"/>
<path style="fill:#6c869d; stroke:none;" d="M362 0C361.906 11.2659 354.892 20.28 349.836 30C341.676 45.6893 329.76 55.7945 317.259 67.804C301.763 82.6913 285.454 96.7787 267.443 108.489C263.174 111.265 259.985 115.536 255.999 118.714C247.557 125.448 238.696 131.859 230 138.265C185.995 170.683 141.825 203.346 100.91 239.806C96.6629 243.592 91.4039 246.091 87.3287 250.095C80.0861 257.211 74.5182 265.863 67.0039 272.946C58.7801 280.697 51.5455 287.93 44.409 296.625C41.0955 300.662 37.2858 304.245 35 309C44.4881 304.354 50.9701 291.814 58.4035 284.456C64.107 278.811 70.3536 273.756 75.9853 268.001C79.5826 264.325 82.4994 259.958 86.2099 256.425C95.6118 247.473 105.944 239.446 115.325 230.514C131.657 214.964 150.986 201.879 168.831 188.169C201.519 163.055 234.166 138.414 267.081 113.481C275.774 106.896 284.33 100.239 293.17 93.8364C296.619 91.3379 300.756 89.6671 303.896 86.7762C307.208 83.7268 309.149 79.5029 312.455 76.4391C334.306 56.1885 364.978 32.6975 365 0L362 0z"/>
<path style="fill:#6f8ba2; stroke:none;" d="M365 0C364.941 21.4282 350.313 39.0014 335.7 53.2593C327.729 61.0366 319.589 68.6943 311.725 76.4391C308.491 79.6231 306.375 83.7552 302.957 86.7762C296.412 92.561 287.856 96.2648 281.039 101.819C233.473 140.572 182.377 174.37 135.004 213.425C118.468 227.057 101.832 240.993 86.2099 255.615C79.4685 261.925 73.7532 269.489 67.0147 275.91C57.077 285.38 48.4672 295.555 39.0764 305.547C32.118 312.951 25.208 319.829 19.3125 328.259C17.1905 331.294 16.0848 334.867 14.1435 338C10.0025 344.683 2.54982 352.459 0.43287 360.039C-1.08547 365.476 0 372.382 0 378C4.48482 370.908 7.38807 362.467 11.3202 355C20.2348 338.072 31.8875 320.608 44.6049 306.321C102.648 241.112 173.24 190.896 241.999 137.814C269.408 116.654 297.356 96.6757 323.09 73.4097C340.658 57.5255 359.309 38.8093 367.616 16C369.503 10.8192 369.997 5.38177 371 0L365 0z"/>
<path style="fill:#718ca4; stroke:none;" d="M371 0C369.709 5.36194 369.301 10.8197 367.24 16C361.645 30.0585 352.54 41.9031 342.565 53.0895C323.662 74.2869 301.143 92.2623 278.75 109.692C210.203 163.046 136.628 211.372 75 273C53.0783 294.922 34.0154 318.101 17.3364 344.171C10.2632 355.226 0.614188 369.559 0 383C3.67362 380.216 4.27086 374.122 6.25849 370C11.2209 359.71 16.8026 349.55 23.0787 340C41.4364 312.065 64.2687 287.454 88.1698 264.285C103.998 248.941 121.059 234.777 138.053 220.818C143.429 216.403 149.576 213.06 154.855 208.561C191.156 177.625 230.102 148.99 268.615 120.6C291.794 103.514 314.603 85.3907 335 65C346.128 53.8751 357.588 41.7829 364.968 27.7145C369.524 19.0314 371.376 9.33405 374 0L371 0z"/>
<path style="fill:#728ea6; stroke:none;" d="M142 720L144 720C143.932 695.283 138.85 669.908 132.873 646C117.632 585.033 89.7938 528.8 59.6944 474C46.8897 450.687 32.2134 428.569 18.1921 406C13.0361 397.701 3.80199 388.404 7.43982 378C11.9581 365.078 19.4576 353.314 27 342C42.107 319.339 59.7737 299.226 79 280C135.624 223.376 201.092 176.805 265 128.873C289.616 110.411 313.899 91.582 335.961 70.0895C356.415 50.1635 373.327 29.0377 377 0C372.31 1.5415 372.449 5.69739 371.255 10C369.46 16.4636 367.072 23.8031 363.381 29.4244C348.196 52.5504 328.396 72.0924 307.015 89.5502C269.009 120.582 229.075 148.908 190.196 178.815C180.211 186.496 169.769 193.931 160.224 202.153C157.031 204.903 154.713 208.26 151.29 210.845C119.016 235.213 86.8885 261.301 60.1343 291.985C44.9853 309.36 28.5001 327.572 17.5177 348C15.6349 351.502 15.1753 355.438 13.4745 359C9.67534 366.958 2.58567 375.687 3.39352 384.985C4.29237 395.332 15.4925 406.444 20.8079 415C35.4101 438.504 49.957 461.897 63.5756 486C88.5918 530.276 110.066 577.351 125.025 626C134.253 656.012 141.979 688.442 142 720z"/>
<path style="fill:#738ea6; stroke:none;" d="M377 0C375.594 7.54846 374.456 14.8182 371.547 22C363.516 41.8246 347.988 57.3228 332.999 72.0146C312.298 92.3052 289.161 110.003 266 127.373C201.028 176.102 134.565 223.435 77 281C58.1576 299.842 41.1276 319.809 26.3333 342C18.887 353.169 11.1925 365.095 7.09336 378C3.63277 388.895 12.8294 398.368 18.1921 407C32.2134 429.569 46.8897 451.687 59.6944 475C89.7938 529.801 117.632 586.033 132.873 647C138.772 670.594 143.798 695.612 144 720C146.427 714.217 144.389 707.065 143.975 701C142.762 683.225 139.188 665.262 134.873 648C117.683 579.22 85.6232 516.26 50.7191 455C41.1902 438.276 30.6739 422.011 20 406C15.4792 399.219 7.50851 390.74 8.34028 382C9.29116 372.008 16.1991 362.381 21.2006 354C33.8228 332.849 49.3705 314.223 65.8302 296C130.923 223.933 214.501 170.033 291 111.119C318.441 89.9858 347.726 66.7756 366.186 37C371.116 29.0481 375.004 20.2366 376.739 11C377.433 7.30603 378.443 3.53906 377 0z"/>
<path style="fill:#738fa7; stroke:none;" d="M378 0C377.128 20.3098 366.355 37.7382 353.75 53C331.159 80.3524 301.837 101.77 274 123.424C208.754 174.179 139.674 220.326 81 279C59.7875 300.213 39.1555 323.216 23.6011 349C18.945 356.718 13.7567 364.576 10.4637 373C4.78335 387.532 13.553 397.329 21.3333 409C35.4304 430.146 48.3414 451.974 61 474C85.0465 515.841 105.512 559.537 121.692 605C134.622 641.331 145 681.201 145 720L569 720L693 720L729 720C734.086 720 741.157 721.249 745.961 719.397C749.296 718.111 751.555 714.65 753.75 712C758.21 706.613 762.659 701.247 767.286 696C781.162 680.261 797.056 665.867 813 652.272C863.188 609.477 918.857 573.181 976 540.421C1031.53 508.588 1088.42 480.114 1146 452.258C1161.15 444.927 1176.65 438.224 1192 431.306C1196.95 429.076 1207.39 426.71 1210.25 421.801C1212.54 417.863 1206.56 415.21 1204 413.565C1194.21 407.273 1184.95 400.044 1176.44 392.116C1147.53 365.169 1133.73 322.651 1132.04 284C1128.87 211.716 1157.01 138.596 1188.81 75C1196.57 59.4857 1204.79 44.0511 1213.42 29C1218.89 19.4662 1225.65 10.0772 1230 0L378 0z"/>
<path style="fill:#738ea6; stroke:none;" d="M1230 0C1193.29 59.7666 1160.22 124.633 1143.13 193C1135.6 223.116 1129.95 254.82 1132.09 286C1134.74 324.675 1147.31 365.747 1176.44 392.884C1184.66 400.539 1193.54 407.491 1203 413.565C1205.53 415.188 1211.75 417.894 1209.36 421.801C1207.27 425.244 1201.46 426.651 1198 428.231C1188.7 432.475 1179.26 436.439 1170 440.78C1134.84 457.264 1099.53 473.437 1065 491.258C983.996 533.068 903.367 578.705 832 635.8C813.076 650.94 795.132 666.868 778 684C767.017 694.983 755.272 706.773 747 720C752.195 718.326 755.058 713.058 758.435 709C764.439 701.786 770.877 694.955 777.17 688C796.232 666.933 819.303 647.903 842 630.873C921.878 570.939 1008.45 520.782 1098 476.756C1127.05 462.475 1156.77 449.642 1186 435.745C1192.92 432.454 1200.01 429.534 1207 426.41C1209.38 425.348 1213.65 423.878 1214.08 420.83C1214.66 416.664 1207.77 413.911 1205 412.186C1194.93 405.924 1185.36 398.413 1177 389.999C1153.21 366.039 1140.31 335.012 1135.43 302C1129.91 264.753 1135.55 226.086 1145.58 190C1157.96 145.451 1176.07 103.046 1197.26 62C1208.08 41.0404 1222.03 21.3187 1232 0L1230 0z"/>
<path style="fill:#728ea6; stroke:none;" d="M750 720C758.344 717.81 764.005 707.273 769.375 700.961C776.055 693.109 784.615 687.075 791.545 679.424C798.015 672.281 806.393 660.697 816 658C819.883 649.867 828.703 648.13 834.871 642.405C853.665 624.962 874.293 610.018 896.112 596.486C913.159 585.914 929.011 573.439 946.299 563.439C1003.18 530.54 1060.72 499.074 1120 470.677C1143.33 459.5 1167.03 448.07 1191 438.194C1197.81 435.386 1204.23 431.718 1211 428.887C1214.44 427.45 1219.49 425.914 1221.51 422.471C1223.99 418.237 1218.13 415.264 1215.29 413.383C1205.44 406.867 1196.01 400.996 1187 393.271C1170.79 379.373 1160.12 363.272 1151.38 344C1148.7 338.108 1145.22 333.372 1143.43 327C1139.47 312.911 1138.56 296.576 1137.17 282C1134.61 255.243 1141 227.789 1147.12 202C1157.89 156.532 1175.91 113.711 1196.75 72C1200.52 64.467 1203.33 56.389 1207.34 49C1212.82 38.9364 1218.37 28.6952 1224.48 19C1228.5 12.6147 1233.42 6.61908 1237 0C1228.61 0.645935 1225.62 10.5818 1221.8 17C1210.92 35.2663 1200.75 53.9894 1191.25 73C1165.6 124.297 1142.71 179.612 1135.84 237C1131.99 269.197 1132.08 301.74 1142.03 333C1150.93 360.99 1168.35 386.345 1192 403.845C1197.81 408.142 1204.19 411.631 1209.98 415.904C1212.13 417.497 1214.64 419.778 1212.53 422.468C1210.22 425.413 1205.31 426.727 1202 428.15C1193.95 431.611 1186 435.297 1178 438.861C1150.47 451.122 1122.99 463.848 1096 477.248C1006.5 521.681 919.974 571.549 840 631.627C816.076 649.599 792.894 669.817 772.83 692C765.084 700.564 754.762 709.316 750 720z"/>
<path style="fill:#718ca4; stroke:none;" d="M1237 0C1219.24 23.0156 1207.65 49.209 1194.75 75C1160.37 143.772 1130.81 220.99 1139.17 299C1140.22 308.819 1140.91 319.528 1143.72 329C1145.49 334.967 1148.86 339.449 1151.38 345C1160.81 365.784 1172.59 381.832 1190 396.729C1197.9 403.49 1206.73 408.171 1215.29 413.965C1217.91 415.74 1223.21 418.628 1220.82 422.471C1219.07 425.287 1214.9 426.859 1212 428.089C1206.92 430.244 1202.03 432.758 1197 435.026C1177.11 443.994 1156.19 452.021 1137 462.309C1103.67 480.172 1068.4 494.931 1035.09 512.809C1005.03 528.943 974.749 545.826 945.465 563.439C928.349 573.734 912.495 586.102 895.334 596.486C873.882 609.467 853.048 624.298 834.871 641.572C828.888 647.257 818.494 649.351 816 658C806.886 659.406 797.991 671.017 792.29 677.714C786.537 684.474 779.312 689.839 773.015 696.039C765.756 703.188 759.103 711.844 753 720C765.901 719.883 773.197 704.994 781.339 696.421C797.162 679.76 814.719 665.33 831.981 650.246C836.617 646.194 839.501 640.962 844.424 637.086C880.695 608.528 919.163 583.132 959 559.889C985.801 544.252 1012.25 528.165 1039.91 514.111C1064.25 501.742 1087.79 487.218 1113 476.427C1141.68 464.151 1169.31 449.384 1198 437C1205.01 433.973 1212.09 431.06 1218.99 427.766C1221.59 426.521 1225.46 425.025 1226.15 421.816C1227.18 416.989 1220.29 413.948 1217 412.011C1205.85 405.445 1194.58 398.526 1185.71 388.96C1175.42 377.853 1166.03 367.287 1158.43 354C1146.46 333.079 1140.73 307.886 1139.09 284C1137.13 255.463 1142.76 227.465 1149.62 200C1160.45 156.715 1176.74 114.645 1197.26 75C1206.33 57.4753 1216.09 40.3124 1225.9 23.1697C1230.25 15.5793 1236.15 8.28918 1239 0L1237 0z"/>
<path style="fill:#708ba2; stroke:none;" d="M1239 0C1229.81 18.54 1217.62 35.7599 1207.79 54C1182.76 100.443 1162.46 148.839 1149.37 200C1142.27 227.733 1136.43 257.161 1139.17 286C1143.18 328.128 1158.6 368.867 1192.58 396C1201.34 402.998 1210.65 408.325 1220 414.44C1222.93 416.357 1227.55 419.519 1224.79 423.443C1223.08 425.878 1219.59 427.032 1217 428.23C1210.72 431.139 1204.34 433.818 1198 436.576C1176.17 446.063 1154.42 455.921 1133 466.258C1057.48 502.709 982.325 541.401 912.537 588.196C893.715 600.817 874.787 613.328 856.6 627C850.461 631.615 839.422 637.481 837 645C842.229 642.669 846.451 638.574 851 635.13C858.929 629.127 866.91 623.205 875 617.421C898.631 600.528 923.078 584.973 947.424 569.173C956.529 563.264 966.701 559.613 976 554.336C1001.61 539.806 1026.98 524.894 1053 511.12C1078.7 497.513 1105.19 485.347 1131 472.108C1139.63 467.68 1148.88 464.475 1157.57 460.225C1160.89 458.599 1162.85 455.268 1166.13 453.695C1178.76 447.636 1192.11 442.557 1205 436.86C1211.51 433.984 1217.69 430.588 1224.09 427.59C1226.89 426.277 1230.61 425.257 1231.74 421.96C1233.44 417.017 1226.45 414.356 1223.17 412.715C1212.1 407.179 1200.48 399.926 1191.27 391.544C1162.07 364.968 1143.77 326.56 1142.04 287C1139.77 235.28 1153.33 184.683 1172.4 137C1177.64 123.893 1182 110.718 1188.4 98.0895C1192.1 90.7864 1197.41 84.3206 1201.1 77C1203.48 72.2683 1204.21 66.8621 1206.34 62.0008C1210.25 53.0413 1215.88 43.8505 1220.9 35.4282C1224.92 28.6759 1228.58 21.582 1233 15.0803C1236.33 10.1901 1240.2 6.0481 1241 0L1239 0z"/>
<path style="fill:#6e89a0; stroke:none;" d="M1241 0C1239.55 6.15607 1235.23 10.6723 1231.93 15.9197C1225.76 25.7706 1220 36.007 1214.42 46.1697C1211.61 51.2894 1208.12 56.5928 1205.92 62.0008C1204.2 66.2302 1203.48 70.8566 1201.59 75C1198.03 82.8114 1192.36 89.575 1188.4 97.1697C1181.37 110.64 1176.83 124.924 1171.2 139C1165.05 154.38 1156.45 172.387 1155 189C1158.86 183.786 1158.65 177.898 1161.17 172.174C1167.3 158.268 1174.28 144.302 1179.74 129.999C1182.9 121.722 1183.56 113.237 1187.53 105.094C1190.08 99.8655 1194.97 95.7867 1197.81 90.4282C1202.76 81.064 1205.94 70.4232 1210.97 61.2894C1213.38 56.9214 1217.71 53.6879 1220.45 49.5363C1223.77 44.5199 1225.02 38.3958 1227.88 33.1697C1233.94 22.074 1241.87 12.1129 1246 0L1241 0z"/>
<path style="fill:#678095; stroke:none;" d="M1160 191C1164.95 186.037 1166.1 176.601 1168.33 170C1173.36 155.138 1178.89 140.471 1185.04 126C1189.36 115.822 1195.37 106.858 1200.3 97C1203.4 90.7985 1205.38 84.17 1208.78 78.0394C1210.74 74.5144 1213.6 71.5792 1215.45 67.9962C1219.06 60.9918 1219.84 53.0815 1223.86 46.0895C1232.6 30.9182 1244.67 16.3062 1251 0C1244.09 0.546265 1242.83 6.87793 1239.93 12.2816C1233.83 23.6583 1227.28 34.2263 1221.86 45.9606C1219.26 51.564 1213.97 55.1587 1210.97 60.439C1208.5 64.7919 1207.21 70.3635 1205.14 75C1203.45 78.7863 1200.8 82.3737 1199.48 86.2855C1198.4 89.4966 1198.32 92.813 1196.77 95.9105C1186.5 116.336 1177.68 137.435 1169.91 159C1166.19 169.323 1161.09 180.001 1160 191z"/>
<path style="fill:#627a8e; stroke:none;" d="M1153 243C1159.03 234.187 1157.32 220.139 1160.01 210C1166.05 187.288 1174.8 165.043 1182.68 143C1185.35 135.52 1190.24 129.154 1193.4 121.985C1195.11 118.12 1195.73 113.889 1197.44 110C1206.22 89.9982 1215.02 69.2988 1225.18 50C1229.46 41.8779 1235.36 34.7816 1240.24 27C1245.72 18.27 1250.07 9.01685 1255 0C1248.75 1.01984 1246.57 8.784 1243.09 13.5756C1231.98 28.8998 1222.74 46.2253 1216.69 64C1214.89 69.2692 1210.87 73.21 1208.26 78.0394C1205.11 83.8654 1203.23 90.1385 1200.3 96C1197.03 102.533 1192.59 108.463 1189.4 115C1184.82 124.362 1181.41 134.323 1177.59 144C1172.97 155.733 1167.73 167.712 1164.61 180C1163.28 185.244 1162.8 190.71 1161.42 196C1157.54 210.898 1153.01 227.585 1153 243z"/>
<path style="fill:#5a7083; stroke:none;" d="M1239 435C1245.03 433.051 1250.82 430.259 1255.98 426.535C1258.41 424.789 1261.33 422.454 1260.2 419.09C1258.76 414.789 1251.58 411.536 1248 409.21C1244.34 406.835 1240.12 406.172 1236.42 403.957C1216.13 391.777 1195.75 377.379 1181.75 358C1154.85 320.797 1153.8 273.408 1161.25 230C1171.59 169.672 1197.35 112.527 1226.31 59C1237.16 38.9344 1250.3 20.1026 1261 0C1250.64 0.337097 1247.2 14.0587 1242.67 22C1237.51 31.0486 1230.8 38.9626 1225.75 48C1223.78 51.5143 1222.9 55.3826 1221.18 59C1216.25 69.4055 1211.07 79.3804 1206.65 90C1203.95 96.5024 1200.26 102.567 1197.44 109C1195.59 113.219 1194.95 117.845 1192.95 121.985C1189.84 128.421 1185.8 134.325 1183.07 141C1181.35 145.173 1180.84 149.794 1179.2 154C1171.97 172.512 1163.96 191.512 1159.5 211C1158.07 217.257 1157.94 223.708 1156.76 230C1155.81 235.023 1153.91 239.93 1153.21 245C1152.22 252.121 1153 259.817 1153 267C1153 281.261 1152.9 296.049 1156.55 309.91C1159.29 320.281 1162.11 331.977 1166.47 341.83C1175.16 361.49 1192.57 378.822 1209.42 391.637C1220.16 399.802 1234.39 403.202 1245.58 410.6C1248.82 412.744 1255.33 415.747 1255.94 420.09C1256.93 427.077 1242.8 430.757 1239 435z"/>
<path style="fill:#0c4160; stroke:none;" d="M1280 416L1280 0C1274.73 0 1265.87 -1.69653 1261.21 1.02777C1258.08 2.8548 1256.42 7.04559 1254.57 10C1250.24 16.9614 1246.01 23.9614 1241.8 31C1225.25 58.6479 1209.87 87.3796 1197.15 117C1176.09 166.023 1158 217.09 1158 271C1158 310.451 1167.19 345.905 1195.58 374.715C1204.65 383.921 1215.68 391.476 1227 397.688C1243.37 406.673 1261.72 412.554 1280 416z"/>
<path style="fill:#6a849a; stroke:none;" d="M1197 90C1194.72 95.4718 1190.95 98.5439 1188 103.339C1186.03 106.545 1184.7 110.803 1183.21 114.286C1181.08 119.24 1181.43 124.934 1179.33 129.999C1176.35 137.194 1172.05 143.918 1169.46 151.286C1149.53 207.817 1133.84 273.669 1155 332C1156.01 328.591 1154.41 325.414 1153.67 322L1150.12 305C1146.58 288.352 1144.57 267.933 1147.44 251.004C1149.3 240.039 1150.83 227.974 1153.46 217.17C1155.03 210.701 1157.71 204.457 1159.3 198C1160.1 194.706 1159.84 191.3 1160.59 188C1163.35 175.96 1167.9 163.493 1172.43 152C1176.01 142.935 1179.23 132.797 1183.54 124.089C1187.14 116.807 1190.38 109.526 1193.67 102.089C1195.55 97.8501 1197.92 94.6365 1199 90L1197 90z"/>
<path style="fill:#5d7487; stroke:none;" d="M0 346C11.0713 337.531 16.5731 321.159 25.0895 310.129C42.8228 287.162 63.4569 264.826 85.0401 245.428C92.6589 238.581 101.611 233.205 109.501 226.576C115.727 221.345 121.149 214.848 127.299 209.785C130.248 207.358 133.885 205.91 136.701 203.255C141.892 198.359 146.331 193.258 152.09 188.783C157.996 184.193 164.892 180.733 170.997 176.255C185.894 165.328 200.188 153.506 214.804 142.204C227.651 132.27 240.754 122.439 253.618 112.618C260.154 107.628 267.89 104.677 273 98C264.839 100.684 258.825 107.012 251.715 111.561C236.344 121.395 221.778 132.3 207.015 143.09C185.791 158.603 164.328 174.225 144.095 191.001C139.733 194.617 136.13 198.965 131.728 202.589C117.555 214.26 102.935 225.2 89.2855 237.513C78.4659 247.274 68.6572 257.982 58 267.91C39.303 285.328 24.4167 305.167 11.2863 327C7.40393 333.455 1.88969 338.474 0 346z"/>
<path style="fill:#678196; stroke:none;" d="M0 359C8.92074 351.381 12.983 338.736 19.3125 329.129C28.1369 315.735 39.1966 302.384 49.5147 290.129C57.3355 280.84 67.5156 273.697 75.9853 265C80.2308 260.64 83.0534 255.191 87.3287 250.924C91.0969 247.162 95.8156 244.68 99.9606 241.403C108.018 235.032 115.599 227.786 123.559 221.244C140.197 207.571 156.453 192.413 174.17 180.173C188.677 170.15 201.807 158.251 216.09 148.012C223.97 142.363 232.198 137.251 240 131.374C247.019 126.087 260.339 119.732 263 111C254.889 112.961 248.571 120.199 242 125.127C228.533 135.227 214.674 144.695 201.2 154.8C184.989 166.958 168.413 178.782 152.88 191.792C146.632 197.025 141.351 203.411 134.961 208.448C129.754 212.553 124.421 217.223 118.91 220.9C114.165 224.066 109.071 226.178 104.611 229.835C83.5548 247.097 64.9288 267.213 47.3356 287.91C44.1858 291.616 41.7841 296.227 38.5748 299.701C36.9173 301.496 34.5948 302.462 32.8796 304.209C30.4107 306.723 28.9138 309.926 26.7708 312.679C20.599 320.608 14.032 328.301 8.91667 336.996C4.66244 344.227 0.0786723 350.308 0 359z"/>
<path style="fill:#6d889e; stroke:none;" d="M1161 170C1158.29 183.155 1152.34 194.814 1149.42 208C1139.25 254.068 1137.03 303.183 1157.03 347C1164.67 363.744 1176.87 379.198 1190.42 391.544C1195.99 396.617 1202.72 400.149 1208.58 404.855C1214.1 409.295 1221.1 411.265 1226.99 415.144C1228.91 416.408 1231.56 418.36 1231.23 420.999C1230.58 426.199 1218.26 430.547 1214 432.424C1202.72 437.393 1191.59 443.118 1180.04 447.417C1175.19 449.225 1165.91 451.86 1163 456C1174.8 454.465 1186.62 446.88 1197.42 442.035C1205.85 438.26 1214.79 436.674 1223.09 432.762C1227.85 430.52 1238.98 427.512 1238.95 421.015C1238.94 417.067 1234.86 415.943 1232.04 414.299C1226.5 411.072 1221.43 406.631 1216 403.115C1211.13 399.964 1205.66 397.755 1201 394.33C1189.62 385.955 1181.76 375.941 1173.49 364.843C1170.68 361.071 1167.53 358.461 1165.59 354C1162.88 347.765 1160.79 341.286 1157.92 335.09C1155.86 330.628 1152.97 326.752 1151.46 322C1150.11 317.746 1150.15 313.317 1149.16 309C1143.77 285.656 1143.99 261.71 1147.43 238C1149.19 225.81 1151.57 212.81 1154.97 201C1157.85 191.008 1162.09 180.398 1163 170L1161 170z"/>
<path style="fill:#31566e; stroke:none;" d="M1171.33 185.667C1171.28 185.722 1171.22 186.778 1171.67 186.333C1171.72 186.278 1171.78 185.222 1171.33 185.667z"/>
<path style="fill:#657d92; stroke:none;" d="M1163 186C1155.47 202.976 1152.6 221.725 1150.04 239.985C1149.46 244.107 1147.6 247.83 1147.17 252.001C1145.16 271.726 1146.83 292.888 1151.71 312C1153.24 317.982 1153.4 324.159 1155.71 329.961C1156.93 332.998 1159.15 335.235 1160.74 338.039C1165.97 347.245 1169.26 361.563 1179 367C1176.81 358.53 1169.55 351.777 1165.6 343.985C1157.2 327.402 1151.47 306.732 1151.01 288C1150.74 276.915 1149.99 265.025 1151.17 254C1152.58 240.862 1155.28 228.05 1157.3 215C1158.34 208.238 1160.35 201.648 1161.9 195C1162.6 191.951 1163.84 189.018 1163 186z"/>
<path style="fill:#31566f; stroke:none;" d="M1166 203L1166 206C1166.7 204.446 1166.7 204.554 1166 203M1165 207L1165 210C1165.7 208.446 1165.7 208.554 1165 207M1159 237L1159 243C1159.95 240.715 1159.95 239.285 1159 237z"/>
<path style="fill:#637c90; stroke:none;" d="M0 352C5.94461 345.572 9.39986 336.312 14.6458 329.17C20.491 321.211 26.1978 312.191 32.8796 304.974C34.7818 302.919 37.504 301.843 39.2778 299.701C45.8118 291.812 51.527 282.9 58.3002 275C66.9415 264.921 77.2803 256.655 86.456 247.13C89.601 243.866 93.6725 241.958 96 238C87.6853 240.47 83.4978 246.942 77.6752 252.741C75.0063 255.398 71.7284 257.389 69 260.019C54.8418 273.662 42.6761 288.694 30.3804 303.886C23.7466 312.082 17.2816 319.724 11.9969 329C7.86391 336.255 0.27079 343.482 0 352z"/>
<path style="fill:#365971; stroke:none;" d="M1158 245L1158 249C1158.71 247.241 1158.71 246.759 1158 245z"/>
<path style="fill:#637c90; stroke:none;" d="M1152 247C1148.72 272.961 1149.63 303.098 1158.38 327.999C1162.76 340.432 1169.7 351.003 1176.67 362.015C1180.04 367.336 1181.86 373.184 1186.13 378C1199.07 392.607 1215.42 400 1232 409.139C1239.67 413.364 1248.28 414.439 1248 425C1241.16 426.363 1235.19 431.26 1228.96 434.266C1214.99 441.005 1200.57 447.35 1187 455C1191.92 456.156 1198.46 451.672 1203 449.742C1216.27 444.102 1230.44 439.122 1243 432.05C1247.31 429.624 1257.23 426.509 1256.42 420.09C1255.4 412.036 1240.94 408.236 1235.04 405.191C1216.23 395.479 1198.36 384.674 1184.74 367.91C1178.23 359.892 1171.62 351.007 1166.89 341.83C1163.16 334.587 1161.87 325.81 1159.87 318.015C1157.1 307.255 1154.24 297.241 1153.17 286C1152.36 277.454 1153 268.582 1153 260C1153 255.74 1153.66 250.959 1152 247z"/>
<path style="fill:#1a4965; stroke:none;" d="M1157 258L1157 286C1159.6 279.793 1159.6 264.206 1157 258z"/>
<path style="fill:#31566f; stroke:none;" d="M1158 293L1158 298C1158.83 295.97 1158.83 295.03 1158 293z"/>
<path style="fill:#2d546d; stroke:none;" d="M1159 301L1159 305C1159.71 303.241 1159.71 302.759 1159 301z"/>
<path style="fill:#31566f; stroke:none;" d="M1160 307L1160 310C1160.7 308.446 1160.7 308.554 1160 307z"/>
<path style="fill:#31576f; stroke:none;" d="M1161.33 312.667C1161.28 312.722 1161.22 313.778 1161.67 313.333C1161.72 313.277 1161.78 312.222 1161.33 312.667z"/>
<path style="fill:#c3ceda; stroke:none;" d="M348 323L348 382L351 382L351 323L348 323z"/>
<path style="fill:#90a6ba; stroke:none;" d="M967.667 323.333C967.222 323.778 968.278 323.722 968.333 323.667C968.778 323.222 967.722 323.278 967.667 323.333z"/>
<path style="fill:#aebdcc; stroke:none;" d="M969 323C970.769 323.779 972.036 323.912 974 324C972.231 323.221 970.964 323.088 969 323z"/>
<path style="fill:#c3ceda; stroke:none;" d="M1004 382L1006 382C1007.95 375.416 1007 367.834 1007 361L1007 323C1001.33 324.883 1003 332.012 1003 337L1003 365C1003 370.64 1002.39 376.564 1004 382z"/>
<path style="fill:#b9c5d4; stroke:none;" d="M347 324L347 381C348.875 376.531 348 370.809 348 366L348 338C348 333.464 348.769 328.215 347 324M351 324L351 381C352.875 376.531 352 370.809 352 366L352 338C352 333.464 352.769 328.215 351 324z"/>
<path style="fill:#c3ceda; stroke:none;" d="M961 342L953 342L953 346L961 346C961 357.256 958.806 371.194 962 382L964 382C967.194 371.194 965 357.256 965 346L976 346L976 342L965 342C965.001 332.605 966.778 327.682 977 328L977 324C973.534 324 969.32 323.407 966.044 324.742C959.418 327.442 961 336.26 961 342z"/>
<path style="fill:#aabaca; stroke:none;" d="M1007 324L1007 380C1008.77 375.785 1008 370.535 1008 366L1008 339C1008 334.191 1008.88 328.469 1007 324z"/>
<path style="fill:#7d97ad; stroke:none;" d="M1002 325L1002 380C1003.77 375.785 1003 370.535 1003 366L1003 340C1003 335.191 1003.88 329.469 1002 325z"/>
<path style="fill:#c3ceda; stroke:none;" d="M222 326C222.384 334.396 226.098 342.205 228.947 350C231.238 356.269 232.842 362.759 235.193 369C236.125 371.476 238.245 381.708 241.92 381.079C244.892 380.57 246.075 375.309 247 373C250.468 364.343 253.383 355.113 258 347C262.027 358.902 267.721 370.205 272 382C276.876 380.425 277.809 375.511 279.333 371C282.718 360.979 286.292 351.028 289.667 341C290.66 338.051 295.032 330.579 292.883 327.662C291.425 325.682 289.149 327.791 288.277 329.153C285.771 333.068 284.791 338.611 283.333 343C282.012 346.978 280.984 351.058 279.565 355C277.439 360.904 274.921 366.765 274 373C269.621 364.777 266.673 355.643 263.2 347C262.241 344.614 260.992 339.426 257.919 338.921C254.792 338.407 253.434 343.93 252.6 346C249.113 354.665 245.958 363.54 242 372C237.183 361.119 234.418 349.158 230.192 338C228.357 333.154 227.767 326.998 222 326z"/>
<path style="fill:#a0b2c4; stroke:none;" d="M221 327L221 330C221.696 328.446 221.696 328.554 221 327z"/>
<path style="fill:#95aabd; stroke:none;" d="M969 327C970.248 327.685 970.549 327.749 972 328C970.752 327.315 970.451 327.251 969 327z"/>
<path style="fill:#a0b2c4; stroke:none;" d="M986 328C987.248 328.685 987.549 328.749 989 329C987.752 328.315 987.452 328.251 986 328z"/>
<path style="fill:#c3ceda; stroke:none;" d="M985 329L985 335C991.534 334.491 991.534 329.509 985 329M598 330C597.999 337.701 597.668 341.898 589 342C590.456 346.387 593.85 345.985 598 346C598 355.44 595.849 367.836 598.318 376.945C599.842 382.566 608.06 383.516 610 378C607.228 377.79 604.595 377.512 603.028 374.852C601.399 372.087 602 368.07 602 365L602 345L612 345L612 342L602 342C602 337.31 603.237 331.738 598 330z"/>
<path style="fill:#aebdcc; stroke:none;" d="M984 330L984 334C984.71 332.24 984.71 331.76 984 330z"/>
<path style="fill:#b3c1d0; stroke:none;" d="M597 331L597 341C598.346 337.793 598.346 334.207 597 331z"/>
<path style="fill:#95aabd; stroke:none;" d="M965 331L965 342C966.431 338.59 966.431 334.41 965 331z"/>
<path style="fill:#90a6ba; stroke:none;" d="M960 332L960 342C961.346 338.793 961.346 335.207 960 332z"/>
<path style="fill:#698399; stroke:none;" d="M1158 334C1159.18 341.612 1163.39 352.375 1167.59 358.871C1169.24 361.41 1171.73 363.176 1173.49 365.63C1181.69 377.084 1189.83 387.878 1202 395.742C1211.14 401.652 1220.42 406.751 1229.29 413.12C1232.08 415.126 1237.14 416.253 1238.44 419.772C1239.82 423.506 1235.78 426.211 1232.98 427.489C1225.21 431.039 1216.59 434.163 1209.17 438.309C1186.79 450.807 1162.29 459.62 1139.04 470.499C1128.24 475.552 1118.9 483.461 1108 488C1111.92 489.076 1115.47 486.445 1119 484.781C1126.84 481.082 1133.79 477.373 1141.17 472.9C1152.75 465.883 1166.5 459.696 1179.09 454.87C1182.3 453.637 1185.73 453.268 1188.91 451.83C1191.95 450.456 1194.35 448.118 1197.29 446.583C1203.42 443.385 1210.04 441.09 1216.17 437.85C1223.83 433.803 1232.12 431.981 1239.42 426.946C1241.7 425.372 1245.86 423.33 1245.17 419.951C1244.39 416.129 1240.1 414.37 1237 412.85C1229.06 408.949 1221.46 404.445 1214 399.652C1200.26 390.826 1190.07 380.984 1179.96 368.379C1177.82 365.706 1174.98 363.827 1173.09 360.907C1167.81 352.743 1165 340.646 1158 334z"/>
<path style="fill:#a5b6c7; stroke:none;" d="M316 340C318.052 340.874 319.747 340.953 322 341C319.948 340.126 318.253 340.047 316 340z"/>
<path style="fill:#aabaca; stroke:none;" d="M380 340C382.332 340.985 384.457 340.981 387 341C384.668 340.015 382.543 340.019 380 340z"/>
<path style="fill:#aebdcc; stroke:none;" d="M421 340C423.052 340.874 424.747 340.953 427 341C424.948 340.126 423.253 340.047 421 340M539 340C541.613 341.098 544.165 340.993 547 341C544.387 339.902 541.836 340.007 539 340M636 340C638.052 340.874 639.747 340.953 642 341C639.948 340.126 638.253 340.047 636 340z"/>
<path style="fill:#90a6ba; stroke:none;" d="M793.667 340.333C793.223 340.777 794.278 340.722 794.333 340.667C794.778 340.222 793.722 340.278 793.667 340.333z"/>
<path style="fill:#aabaca; stroke:none;" d="M895 340C896.769 340.779 898.036 340.912 900 341C898.231 340.221 896.964 340.088 895 340z"/>
<path style="fill:#aebdcc; stroke:none;" d="M924 340C925.506 340.683 926.315 340.826 928 341C926.494 340.317 925.685 340.174 924 340z"/>
<path style="fill:#90a6ba; stroke:none;" d="M928 340C929.248 340.685 929.548 340.749 931 341C929.752 340.315 929.451 340.251 928 340z"/>
<path style="fill:#aebdcc; stroke:none;" d="M1032 340C1034.61 341.098 1037.16 340.993 1040 341C1037.39 339.902 1034.84 340.007 1032 340z"/>
<path style="fill:#c3ceda; stroke:none;" d="M334 372C330.255 373.658 327.057 376.682 323 377.606C311.985 380.113 304.821 370.977 304 361L336 361C335.989 357.118 335.959 353.523 334.08 350.004C329.274 341.003 315.383 337.669 307.09 343.943C300.951 348.587 298.688 355.559 299.04 363C299.523 373.204 306.536 381.711 317 381.985C323.69 382.16 335.306 381.163 334 372z"/>
<path style="fill:#a0b2c4; stroke:none;" d="M323.667 341.333C323.222 341.778 324.278 341.722 324.333 341.667C324.778 341.222 323.722 341.278 323.667 341.333z"/>
<path style="fill:#c3ceda; stroke:none;" d="M396 374C390.459 375.268 385.955 379.522 380 378.056C364.869 374.334 362.16 353.901 376.004 346.573C382.85 342.949 388.69 346.403 395 349C396.863 340.932 386.753 340.935 381 341.004C371.496 341.118 363.051 348.214 362.105 358C361.234 367.011 364.316 376.601 373.001 380.583C380.301 383.929 394.491 383.551 396 374z"/>
<path style="fill:#a0b2c4; stroke:none;" d="M389.667 341.333C389.222 341.778 390.278 341.722 390.333 341.667C390.778 341.222 389.722 341.278 389.667 341.333z"/>
<path style="fill:#c3ceda; stroke:none;" d="M416 341.703C403.792 345.833 400.048 363.855 406.854 373.996C412.157 381.898 422.252 384.166 431 381.211C443.677 376.929 446.974 358.149 439.362 348.043C434.259 341.269 423.951 339.013 416 341.703z"/>
<path style="fill:#95aabd; stroke:none;" d="M455.667 341.333C455.222 341.778 456.278 341.722 456.333 341.667C456.778 341.222 455.722 341.278 455.667 341.333z"/>
<path style="fill:#c3ceda; stroke:none;" d="M459 347C458.423 343.526 457.474 342.577 454 342C454 354.426 451.476 370.078 455 382L457 382C459.707 372.841 455.168 361.545 460.09 353.004C465.41 343.771 477.675 342.794 481.196 354C484.01 362.958 480.335 372.985 483 382L485 382C487.483 373.599 484.146 364.362 486.434 356C489.096 346.269 502.079 341.302 507.91 351.04C513.235 359.932 508.151 372.362 511 382L513 382C515.03 375.132 514 367.131 514 360C514 356.386 514.393 352.424 512.991 349.004C509.607 340.749 499.308 338.954 492.002 343.088C489.318 344.607 487.185 346.868 485 349C479.21 338.109 467.127 340.142 459 347z"/>
<path style="fill:#a5b6c7; stroke:none;" d="M475.667 341.333C475.222 341.778 476.278 341.722 476.333 341.667C476.778 341.222 475.722 341.278 475.667 341.333z"/>
<path style="fill:#c3ceda; stroke:none;" d="M561 373C555.355 372.186 552.358 377.216 547 378.188C536.887 380.023 530.254 369.484 529 361C539.377 361 552.032 362.946 562 360C561.04 355.054 560.327 349.959 556.775 346.105C549.36 338.06 534.956 339.394 528.638 348.015C524.856 353.176 524.402 359.807 525.13 366C527.139 383.093 553.45 389.045 561 373z"/>
<path style="fill:#aabaca; stroke:none;" d="M591 341C593.052 341.874 594.747 341.953 597 342C594.948 341.126 593.253 341.047 591 341M602 341C604.89 342.213 607.874 341.998 611 342C608.11 340.787 605.126 341.002 602 341z"/>
<path style="fill:#c3ceda; stroke:none;" d="M632 341.558C617.844 345.272 614.799 365.641 623.39 375.956C628.496 382.086 637.52 383.285 645 381.467C658.986 378.067 662.074 358.466 654.362 348.019C649.311 341.176 639.967 339.468 632 341.558M695 348L695 342L691 342C691 354.426 688.476 370.078 692 382L694 382C696.707 372.841 692.167 361.544 697.089 353.004C701.778 344.868 712.801 342.19 717.347 352.015C721.224 360.393 719 372.97 719 382C723.381 380.546 722.991 377.175 723 373C723.012 367.199 721.65 359.387 724.14 354.004C728.235 345.148 740.535 342.08 745.427 352.015C749.856 361.009 745.204 372.541 748 382L750 382C751.26 377.737 751 373.426 751 369C751 357.987 752.951 340.536 737 341.045C734.951 341.11 732.93 341.422 731.001 342.133C727.083 343.578 724.26 346.543 721 349C717.185 335.736 702.145 342.227 695 348z"/>
<path style="fill:#a0b2c4; stroke:none;" d="M712.667 341.333C712.222 341.778 713.278 341.722 713.333 341.667C713.778 341.222 712.722 341.278 712.667 341.333z"/>
<path style="fill:#c3ceda; stroke:none;" d="M764 341C764 354.511 758.217 382.159 778 381.995C780.009 381.979 782.061 381.958 783.996 381.347C787.145 380.354 789.484 378.016 792 376C790.417 384.157 787.149 393.741 777 393.791C772.946 393.811 769.008 391.6 765 391C767.133 404.064 789.075 396.904 793.633 388.996C796.644 383.771 796 377.8 796 372L796 341L792 341C792 349.595 794.626 363.428 789.991 370.985C786.002 377.486 775.901 381.112 770.703 373.941C764.986 366.055 768 350.278 768 341L764 341M832 341C830.479 346.146 831 351.661 831 357L831 384C831 388.988 829.328 396.117 835 398L835 375C838.433 377.87 841.361 381.055 846 381.786C849.473 382.334 853.695 382.268 856.999 381.005C870.639 375.792 872.131 354.391 861.906 345.228C854.225 338.346 841.05 340.121 836 349L834 341L832 341z"/>
<path style="fill:#a5b6c7; stroke:none;" d="M853 341C854.248 341.685 854.548 341.749 856 342C854.752 341.315 854.451 341.251 853 341z"/>
<path style="fill:#95aabd; stroke:none;" d="M880.667 341.333C880.222 341.778 881.278 341.722 881.333 341.667C881.778 341.222 880.722 341.278 880.667 341.333z"/>
<path style="fill:#c3ceda; stroke:none;" d="M885 350C883.853 346.283 884.008 343.33 880 342L880 382C885.672 380.117 884 372.988 884 368C884 356.134 887.448 343.323 902 345L902 341C894.071 341.001 888.187 341.844 885 350M919 341.653C905.098 346.012 902.262 365.303 910.8 375.699C915.927 381.941 925.426 383.639 933 381.351C945.941 377.442 949.812 359.605 942.671 349.09C937.618 341.651 927.484 338.993 919 341.653M986 341L986 382C990.381 380.546 989.991 377.175 990 373L990 350C989.991 345.825 990.381 342.454 986 341M1054 373C1048.35 372.186 1045.36 377.216 1040 378.188C1029.89 380.023 1023.25 369.484 1022 361C1032.38 361 1045.03 362.946 1055 360C1053.69 353.246 1052.37 346.854 1046 343.009C1034.84 336.275 1019.38 344.193 1018.1 357C1017.42 363.836 1018.25 371.628 1023.22 376.812C1031.47 385.409 1048.83 383.988 1054 373z"/>
<path style="fill:#a0b2c4; stroke:none;" d="M763 342L763 372C765.395 366.293 764 358.154 764 352C764 348.581 764.328 345.166 763 342z"/>
<path style="fill:#879eb3; stroke:none;" d="M768 342L768 370C770.604 363.794 770.604 348.206 768 342z"/>
<path style="fill:#9aaec0; stroke:none;" d="M791 342L791 369C793.541 362.945 793.541 348.055 791 342z"/>
<path style="fill:#b3c1d0; stroke:none;" d="M985 342L985 381C986.441 377.566 986 373.702 986 370C986 361.729 988.206 349.639 985 342z"/>
<path style="fill:#7d97ad; stroke:none;" d="M690 343L690 380C693.004 372.841 691 361.744 691 354C691 350.298 691.441 346.435 690 343z"/>
<path style="fill:#aabaca; stroke:none;" d="M695 343C695.168 345.402 695.197 346.46 697 348C696.449 346.175 695.924 344.648 695 343z"/>
<path style="fill:#8ca2b6; stroke:none;" d="M796 343L796 379C798.903 372.081 797 361.48 797 354C797 350.298 797.441 346.435 796 343M830 343L830 396C831.875 391.531 831 385.809 831 381L831 356C831 351.74 831.661 346.959 830 343z"/>
<path style="fill:#9aaec0; stroke:none;" d="M835 343L835 349C836.336 346.686 836.202 345.404 835 343z"/>
<path style="fill:#b3c1d0; stroke:none;" d="M879 343L879 381C882.105 373.601 880 362.007 880 354C880 350.298 880.441 346.435 879 343z"/>
<path style="fill:#9aaec0; stroke:none;" d="M976.333 343.667C976.278 343.722 976.222 344.778 976.667 344.333C976.722 344.278 976.778 343.222 976.333 343.667z"/>
<path style="fill:#a0b2c4; stroke:none;" d="M894 344C895.769 344.779 897.036 344.912 899 345C897.231 344.221 895.964 344.088 894 344z"/>
<path style="fill:#738fa7; stroke:none;" d="M304 357L331 357C330.043 348.408 320.35 341.952 312.004 346.179C307.685 348.367 305.319 352.56 304 357z"/>
<path style="fill:#9aaec0; stroke:none;" d="M387.667 345.333C387.222 345.778 388.278 345.722 388.333 345.667C388.778 345.222 387.722 345.278 387.667 345.333z"/>
<path style="fill:#738fa7; stroke:none;" d="M419 345.573C400.813 350.784 407.932 382.975 427.999 377.431C446.391 372.351 439.086 339.816 419 345.573z"/>
<path style="fill:#8ca2b6; stroke:none;" d="M468 345C470.052 345.874 471.747 345.953 474 346C471.948 345.126 470.253 345.047 468 345M496 345C498.332 345.985 500.457 345.981 503 346C500.668 345.015 498.543 345.019 496 345z"/>
<path style="fill:#9aaec0; stroke:none;" d="M538.667 345.333C538.222 345.778 539.278 345.722 539.333 345.667C539.778 345.222 538.722 345.278 538.667 345.333z"/>
<path style="fill:#738fa7; stroke:none;" d="M530 357L557 357C554.206 341.579 532.802 341.53 530 357z"/>
<path style="fill:#9aaec0; stroke:none;" d="M546.667 345.333C546.222 345.778 547.278 345.722 547.333 345.667C547.778 345.222 546.722 345.278 546.667 345.333z"/>
<path style="fill:#b3c1d0; stroke:none;" d="M602 345C604.89 346.213 607.874 345.998 611 346C608.11 344.787 605.126 345.002 602 345z"/>
<path style="fill:#738fa7; stroke:none;" d="M634 345.573C615.758 350.8 622.976 382.72 642.999 377.442C661.516 372.562 654.114 339.808 634 345.573z"/>
<path style="fill:#8ca2b6; stroke:none;" d="M705 345C707.331 345.985 709.457 345.981 712 346C709.668 345.015 707.543 345.019 705 345z"/>
<path style="fill:#90a6ba; stroke:none;" d="M733 345C734.769 345.779 736.036 345.912 738 346C736.231 345.221 734.964 345.088 733 345M846 345C848.052 345.874 849.747 345.953 852 346C849.948 345.126 848.253 345.047 846 345z"/>
<path style="fill:#738fa7; stroke:none;" d="M921.001 345.653C902.573 351.457 911.127 383.587 931 377.347C949.457 371.552 940.956 339.367 921.001 345.653z"/>
<path style="fill:#9aaec0; stroke:none;" d="M1031.67 345.333C1031.22 345.778 1032.28 345.722 1032.33 345.667C1032.78 345.222 1031.72 345.278 1031.67 345.333z"/>
<path style="fill:#738fa7; stroke:none;" d="M1023 357L1050 357C1046.4 342.03 1025.9 341 1023 357z"/>
<path style="fill:#b3c1d0; stroke:none;" d="M597 346L597 376C599.395 370.293 598 362.154 598 356C598 352.581 598.328 349.166 597 346z"/>
<path style="fill:#738fa7; stroke:none;" d="M844.001 346.742C826.915 353.304 836.7 384.498 854.996 376.991C872.171 369.943 863.032 339.434 844.001 346.742z"/>
<path style="fill:#90a6ba; stroke:none;" d="M954 346C956.052 346.874 957.747 346.953 960 347L960 380C961.552 376.301 961 371.983 961 368L961 346L954 346z"/>
<path style="fill:#95aabd; stroke:none;" d="M965 346L965 380C966.552 376.301 966 371.983 966 368L966 347L975 347C971.837 345.673 968.414 346 965 346z"/>
<path style="fill:#90a6ba; stroke:none;" d="M228.333 348.667C228.278 348.722 228.222 349.778 228.667 349.333C228.722 349.278 228.778 348.222 228.333 348.667z"/>
<path style="fill:#a5b6c7; stroke:none;" d="M234.333 350.667C234.278 350.722 234.222 351.778 234.667 351.333C234.722 351.278 234.778 350.222 234.333 350.667z"/>
<path style="fill:#9aaec0; stroke:none;" d="M280.333 351.667C280.278 351.722 280.222 352.778 280.667 352.333C280.722 352.278 280.778 351.222 280.333 351.667z"/>
<path style="fill:#a5b6c7; stroke:none;" d="M560.333 351.667C560.278 351.722 560.222 352.778 560.667 352.333C560.722 352.278 560.778 351.222 560.333 351.667M1053.33 351.667C1053.28 351.722 1053.22 352.778 1053.67 352.333C1053.72 352.277 1053.78 351.222 1053.33 351.667z"/>
<path style="fill:#95aabd; stroke:none;" d="M285.333 352.667C285.278 352.722 285.222 353.778 285.667 353.333C285.722 353.278 285.778 352.222 285.333 352.667z"/>
<path style="fill:#a0b2c4; stroke:none;" d="M1049.33 353.667C1049.28 353.722 1049.22 354.778 1049.67 354.333C1049.72 354.277 1049.78 353.222 1049.33 353.667M279.333 354.667C279.278 354.722 279.222 355.778 279.667 355.333C279.722 355.278 279.778 354.222 279.333 354.667M481 354L481 380C483.477 374.097 483.477 359.903 481 354z"/>
<path style="fill:#879eb3; stroke:none;" d="M486 354L486 380C488.477 374.097 488.477 359.903 486 354z"/>
<path style="fill:#95aabd; stroke:none;" d="M509 354L509 380C511.477 374.097 511.477 359.903 509 354z"/>
<path style="fill:#90a6ba; stroke:none;" d="M514 354L514 380C516.477 374.097 516.477 359.903 514 354z"/>
<path style="fill:#aabaca; stroke:none;" d="M561 354L561 358C561.71 356.24 561.71 355.759 561 354z"/>
<path style="fill:#a0b2c4; stroke:none;" d="M746 354L746 380C748.477 374.097 748.477 359.903 746 354z"/>
<path style="fill:#aabaca; stroke:none;" d="M1054 354L1054 358C1054.71 356.241 1054.71 355.759 1054 354z"/>
<path style="fill:#728da5; stroke:none;" d="M13 355C10.5843 360.802 7.31293 366.209 4.87577 372C3.25824 375.844 2.77846 379.819 0 383L0 385C4.79853 390.439 7.53001 398.794 11.6667 405C24.5519 424.33 36.79 444.026 48.625 464C94.9649 542.207 133.766 628.342 141 720C143.857 713.192 141.019 702.22 140.155 695C137.64 673.983 133.227 653.341 127.421 633C109.536 570.34 78.9959 513.63 47.5255 457C38.2207 440.256 27.5388 423.99 16.9969 408C12.6888 401.465 4.48673 393.035 3.64892 384.985C2.5005 373.951 13.01 365.32 15 355L13 355z"/>
<path style="fill:#aabaca; stroke:none;" d="M718 355L718 380C720.413 374.25 720.413 360.75 718 355z"/>
<path style="fill:#879eb3; stroke:none;" d="M751 355L751 380C753.413 374.25 753.413 360.75 751 355z"/>
<path style="fill:#9aaec0; stroke:none;" d="M403 356L403 366C404.346 362.793 404.346 359.207 403 356z"/>
<path style="fill:#879eb3; stroke:none;" d="M408 356L408 367C409.431 363.59 409.431 359.41 408 356z"/>
<path style="fill:#8ca2b6; stroke:none;" d="M438 356L438 360C438.71 358.24 438.71 357.759 438 356z"/>
<path style="fill:#b3c1d0; stroke:none;" d="M458 356L458 381C460.413 375.25 460.413 361.75 458 356z"/>
<path style="fill:#9aaec0; stroke:none;" d="M618 356L618 364C619.161 361.23 619.161 358.77 618 356z"/>
<path style="fill:#8ca2b6; stroke:none;" d="M623 356L623 367C624.431 363.59 624.431 359.41 623 356z"/>
<path style="fill:#879eb3; stroke:none;" d="M653 356L653 360C653.71 358.24 653.71 357.76 653 356z"/>
<path style="fill:#90a6ba; stroke:none;" d="M658 356L658 360C658.71 358.24 658.71 357.76 658 356z"/>
<path style="fill:#aabaca; stroke:none;" d="M695 356L695 380C697.349 374.403 697.349 361.597 695 356M868 356L868 360C868.71 358.24 868.71 357.76 868 356z"/>
<path style="fill:#aebdcc; stroke:none;" d="M304 357C311.409 360.109 322.975 358 331 358C323.591 354.891 312.025 357 304 357M530 357C537.409 360.109 548.975 358 557 358C549.591 354.891 538.025 357 530 357M1023 357C1030.41 360.109 1041.98 358 1050 358C1042.59 354.891 1031.02 357 1023 357z"/>
<path style="fill:#aabaca; stroke:none;" d="M443 358L443 364C443.951 361.715 443.951 360.285 443 358z"/>
<path style="fill:#9aaec0; stroke:none;" d="M941 358L941 362C941.71 360.24 941.71 359.76 941 358z"/>
<path style="fill:#8ca2b6; stroke:none;" d="M1017 358L1017 364C1017.95 361.715 1017.95 360.285 1017 358z"/>
<path style="fill:#aabaca; stroke:none;" d="M366 359L366 363C366.71 361.24 366.71 360.76 366 359M910 359L910 363C910.71 361.24 910.71 360.76 910 359z"/>
<path style="fill:#8ca2b6; stroke:none;" d="M524 360L524 364C524.71 362.24 524.71 361.759 524 360z"/>
<path style="fill:#879eb3; stroke:none;" d="M946 360L946 364C946.71 362.24 946.71 361.759 946 360z"/>
<path style="fill:#a0b2c4; stroke:none;" d="M304 361C312.128 364.411 325.186 362 334 362C325.872 358.59 312.814 361 304 361M529 361L529 365C529.685 363.752 529.749 363.452 530 362L560 362C551.633 358.489 538.076 361 529 361M1022 361L1022 365C1022.68 363.751 1022.75 363.452 1023 362L1053 362C1044.63 358.489 1031.08 361 1022 361z"/>
<path style="fill:#95aabd; stroke:none;" d="M438 362L438 366C438.71 364.24 438.71 363.759 438 362z"/>
<path style="fill:#a0b2c4; stroke:none;" d="M868 362L868 368C868.951 365.715 868.951 364.285 868 362z"/>
<path style="fill:#90a6ba; stroke:none;" d="M653 363L653 366C653.696 364.446 653.696 364.554 653 363z"/>
<path style="fill:#879eb3; stroke:none;" d="M658 363L658 368C658.83 365.97 658.83 365.03 658 363z"/>
<path style="fill:#9aaec0; stroke:none;" d="M835 364L835 367C835.696 365.446 835.696 365.554 835 364z"/>
<path style="fill:#95aabd; stroke:none;" d="M362.333 366.667C362.278 366.722 362.222 367.778 362.667 367.333C362.722 367.278 362.778 366.222 362.333 366.667z"/>
<path style="fill:#a5b6c7; stroke:none;" d="M367.333 366.667C367.278 366.722 367.222 367.778 367.667 367.333C367.722 367.278 367.778 366.222 367.333 366.667z"/>
<path style="fill:#90a6ba; stroke:none;" d="M526.333 370.667C526.278 370.722 526.222 371.778 526.667 371.333C526.722 371.278 526.778 370.222 526.333 370.667z"/>
<path style="fill:#9aaec0; stroke:none;" d="M835 375L835 396C837.643 389.701 835.394 381.746 837 375L835 375M790 376L791 379C791.685 377.752 791.749 377.452 792 376L790 376z"/>
<path style="fill:#90a6ba; stroke:none;" d="M238.333 377.667C238.278 377.722 238.222 378.778 238.667 378.333C238.722 378.278 238.778 377.222 238.333 377.667z"/>
<path style="fill:#9aaec0; stroke:none;" d="M607.667 377.333C607.222 377.778 608.278 377.722 608.333 377.667C608.778 377.222 607.722 377.278 607.667 377.333M276.333 378.667C276.278 378.722 276.222 379.778 276.667 379.333C276.722 379.278 276.778 378.222 276.333 378.667z"/>
<path style="fill:#aebdcc; stroke:none;" d="M381 378C382.769 378.779 384.036 378.912 386 379C384.231 378.221 382.964 378.088 381 378z"/>
<path style="fill:#aabaca; stroke:none;" d="M544 378C545.506 378.683 546.315 378.826 548 379C546.494 378.317 545.685 378.174 544 378M1037 378C1038.51 378.683 1039.31 378.826 1041 379C1039.49 378.317 1038.69 378.174 1037 378z"/>
<path style="fill:#a0b2c4; stroke:none;" d="M601.667 381.333C601.222 381.778 602.278 381.722 602.333 381.667C602.778 381.222 601.722 381.278 601.667 381.333z"/>
<path style="fill:#9aaec0; stroke:none;" d="M314 382C315.506 382.683 316.315 382.826 318 383C316.494 382.317 315.685 382.174 314 382z"/>
<path style="fill:#aebdcc; stroke:none;" d="M318 382C320.052 382.874 321.747 382.953 324 383C321.948 382.126 320.253 382.047 318 382z"/>
<path style="fill:#90a6ba; stroke:none;" d="M377 382C378.248 382.685 378.548 382.749 380 383C378.752 382.315 378.452 382.251 377 382z"/>
<path style="fill:#aabaca; stroke:none;" d="M380 382C382.052 382.874 383.747 382.953 386 383C383.948 382.126 382.253 382.047 380 382z"/>
<path style="fill:#9aaec0; stroke:none;" d="M418 382C419.506 382.683 420.315 382.826 422 383C420.494 382.317 419.685 382.174 418 382z"/>
<path style="fill:#95aabd; stroke:none;" d="M425 382C426.248 382.685 426.548 382.749 428 383C426.752 382.315 426.452 382.251 425 382z"/>
<path style="fill:#90a6ba; stroke:none;" d="M540 382C541.248 382.685 541.548 382.749 543 383C541.752 382.315 541.452 382.251 540 382z"/>
<path style="fill:#aebdcc; stroke:none;" d="M543 382C545.332 382.985 547.457 382.981 550 383C547.668 382.015 545.543 382.019 543 382z"/>
<path style="fill:#9aaec0; stroke:none;" d="M633 382C636.163 383.327 639.586 383 643 383C639.837 381.673 636.414 382 633 382z"/>
<path style="fill:#aebdcc; stroke:none;" d="M773 382C775.613 383.098 778.164 382.993 781 383C778.387 381.902 775.835 382.007 773 382z"/>
<path style="fill:#9aaec0; stroke:none;" d="M847 382C848.769 382.779 850.036 382.912 852 383C850.231 382.221 848.964 382.088 847 382z"/>
<path style="fill:#90a6ba; stroke:none;" d="M921 382C922.248 382.685 922.549 382.749 924 383C922.752 382.315 922.452 382.251 921 382z"/>
<path style="fill:#aebdcc; stroke:none;" d="M924 382C925.506 382.683 926.315 382.826 928 383C926.494 382.317 925.685 382.174 924 382z"/>
<path style="fill:#90a6ba; stroke:none;" d="M1033 382C1034.25 382.685 1034.55 382.749 1036 383C1034.75 382.315 1034.45 382.251 1033 382z"/>
<path style="fill:#aebdcc; stroke:none;" d="M1036 382C1038.33 382.985 1040.46 382.981 1043 383C1040.67 382.016 1038.54 382.019 1036 382z"/>
<path style="fill:#718ca4; stroke:none;" d="M0 385C0.365389 396.495 11.3006 407.673 17.3079 417C32.0767 439.929 46.1373 463.267 59.5756 487C83.0612 528.477 102.491 571.872 117.667 617C128.738 649.918 138 685.009 138 720L141 720C137.045 627.89 93.0165 540.252 48.0386 462C37.0745 442.925 25.2077 424.312 13 406C10.3745 402.062 7.55081 398.184 5.3233 394C3.62861 390.817 2.919 387.19 0 385z"/>
<path style="fill:#708ba2; stroke:none;" d="M0 391C0.327197 395.295 2.48751 397.919 4.61651 401.551C9.37826 409.674 15.1431 417.192 20.3881 425C34.6266 446.195 47.5016 468.695 59.8966 491C84.6199 535.489 106.436 582.595 120.444 631.714C128.698 660.656 136 689.631 136 720L138 720C138 684.61 128.869 649.309 117.667 616C100.46 564.832 77.2639 516.821 50.4213 470C39.5359 451.013 28.0438 432.273 15.9969 414C11.1738 406.684 6.62437 396.675 0 391z"/>
<path style="fill:#a5b6c7; stroke:none;" d="M764.333 392.667C764.278 392.722 764.222 393.778 764.667 393.333C764.722 393.278 764.778 392.222 764.333 392.667z"/>
<path style="fill:#95aabd; stroke:none;" d="M773 393C775.613 394.098 778.164 393.993 781 394C778.387 392.902 775.835 393.007 773 393z"/>
<path style="fill:#6e89a0; stroke:none;" d="M0 396C0 413.82 14.3602 426.735 24.1651 440.576C27.6826 445.541 32.1541 451.562 34.7454 457.015C36.8985 461.546 37.6819 466.507 40.3341 470.83C45.381 479.058 52.4344 486.539 56.8441 495.09C70.1257 520.842 84.5574 546.815 95.4861 574C98.1923 580.732 98.0542 588.272 100.83 594.995C102.454 598.928 105.937 601.239 107.613 605.054C109.742 609.901 110.499 615.003 112.053 620C116.024 632.765 119.791 644.971 122.843 658C123.677 661.558 125.649 664.669 126.54 668.17C127.348 671.344 127.048 674.764 127.615 678C130.042 691.86 132 705.917 132 720L136 720C136 694.21 130.685 669.842 124.444 645C112.083 595.793 91.1632 548.875 67.6258 504.015C62.9937 495.186 57.3709 486.811 52.7307 477.91C41.6322 456.623 28.628 435.357 14.5795 415.888C10.2078 409.83 6.37398 399.839 0 396z"/>
<path style="fill:#90a6ba; stroke:none;" d="M770 397C771.248 397.685 771.548 397.749 773 398C771.752 397.315 771.452 397.251 770 397z"/>
<path style="fill:#a0b2c4; stroke:none;" d="M780 397C781.248 397.685 781.548 397.749 783 398C781.752 397.315 781.452 397.251 780 397z"/>
<path style="fill:#596f81; stroke:none;" d="M1229 399C1235.24 405.352 1244.63 407.722 1252 412.645C1254.62 414.397 1259.42 416.452 1259.94 420.004C1260.54 424.116 1254.12 427.206 1251.29 428.961C1240.65 435.534 1227.76 437.072 1217 443.529C1209.92 447.778 1203.73 452.337 1196 455.483C1191.8 457.193 1187.3 457.698 1183.17 459.654C1159.3 470.952 1135.75 483.087 1112 494.756C1102.95 499.201 1094.01 503.739 1085 508.247C1080.32 510.587 1074.83 512.397 1072 517C1089.79 509.595 1106.66 499.65 1124 491.258C1158.93 474.358 1194.28 458.192 1230 443C1242.65 437.621 1255.24 432.105 1268 427C1271.56 425.574 1279.7 423.983 1279.7 419.054C1279.7 414.304 1271.33 414.19 1268 413.174C1254.77 409.135 1242.2 402.772 1229 399z"/>
<path style="fill:#647d92; stroke:none;" d="M1223 405C1228.08 409.631 1234.32 411.259 1239.99 414.895C1241.97 416.161 1244.69 418.237 1244.65 420.871C1244.61 424.346 1237.62 427.738 1234.98 429.113C1224.04 434.804 1212.43 439.953 1200.98 444.634C1196.27 446.556 1192.54 449.813 1187.96 451.83C1180.83 454.969 1173.24 456.888 1166.09 460.104C1154.2 465.451 1143.34 472.171 1132 478.485C1123.39 483.276 1114.52 487.139 1105.99 492.127C1094.82 498.659 1081.81 502.416 1072 511C1076.54 512.338 1080 508.902 1084.04 507.204C1088.43 505.357 1091.85 502.501 1096.01 500.262C1104.02 495.955 1112.46 492.523 1120.42 488.169C1131.42 482.161 1142.33 474.786 1154 470.074C1158.46 468.271 1163.37 468.293 1167.83 466.165C1180.36 460.185 1192.39 453.157 1205 447.195C1209.51 445.064 1213.14 441.713 1217.42 439.263C1221.28 437.054 1225.91 436.248 1229.91 434.266C1235.93 431.286 1241.59 427.077 1248 425C1248.71 415.145 1242.4 414.023 1235 410.215C1230.97 408.14 1227.52 405.815 1223 405z"/>
<path style="fill:#698298; stroke:none;" d="M0 407C0.306845 419.752 12.5864 427.688 19.2114 437.575C26.6984 448.748 32.8361 461.237 39.26 473C44.2834 482.199 50.4038 490.984 55.6914 500.09C61.7886 510.589 68.8208 521.915 73.6628 533.001C77.3921 541.539 80.2082 550.468 84.027 559C86.19 563.832 89.5339 568.34 91.4761 573.17C100.885 596.567 108.829 620.646 115.325 645C118.635 657.412 124.494 669.424 126.741 682.089C127.652 687.224 126.887 692.801 127.015 698C127.195 705.351 128 712.602 128 720L132 720C132 702.93 129.92 684.928 126.74 668.17C126.008 664.314 123.745 660.853 122.843 657C118.777 639.618 114.727 621.662 107.985 605.054C106.285 600.869 102.569 598.254 100.83 593.999C98.0787 587.265 98.2001 579.73 95.4861 573.001C91.5652 563.279 87.351 553.432 82.6798 544.039C81.0297 540.722 78.3569 538.042 76.7747 534.711C70.2735 521.02 63.8728 507.403 56.8441 494.17C52.5023 485.995 45.9062 478.653 40.9113 470.83C37.768 465.907 37.0432 460.141 34.2716 455.09C28.8437 445.196 20.9415 436.824 14.3981 427.715C9.47712 420.864 6.37508 412.842 0 407z"/>
<path style="fill:#c3ceda; stroke:none;" d="M588 413C587.518 410.636 587.364 410.482 585 410L585 435C591.197 430.983 585.616 421.719 589.603 416.109C593.01 411.316 600.108 411.082 602.397 417.019C604.352 422.093 603 429.613 603 435L606 435C606 426.469 608.716 403.875 593.025 409.835C591.123 410.557 589.613 411.808 588 413M635 429C631.92 429.773 629.117 431.836 626 432.323C619.919 433.274 616.289 426.936 615 422L635 422C634.911 418.313 634.582 415.004 631.772 412.279C625.926 406.611 615.634 409.001 613.434 417.001C612.137 421.715 612.666 428.209 616.228 431.772C621.769 437.312 631.646 435.799 635 429M649.001 409.742C633.923 415.508 641.985 439.866 657.985 434.297C673.147 429.019 664.348 403.873 649.001 409.742z"/>
<path style="fill:#a0b2c4; stroke:none;" d="M670.667 409.333C670.222 409.778 671.278 409.722 671.333 409.667C671.778 409.222 670.722 409.278 670.667 409.333M688.667 409.333C688.222 409.778 689.278 409.722 689.333 409.667C689.778 409.222 688.722 409.278 688.667 409.333z"/>
<path style="fill:#c3ceda; stroke:none;" d="M670 410C671.143 414.196 676.595 418.381 676.534 422.576C676.475 426.67 671.097 430.78 670 435C674.385 432.862 676.851 429.313 679 425L681 425C682.911 429.512 685.542 432.877 690 435C688.867 430.641 683.642 426.422 683.792 422C683.929 417.927 688.53 413.822 690 410C685.199 411.467 682.748 415.457 681 420L679 420C677.559 416.274 675.186 413.321 673 410L670 410z"/>
<path style="fill:#738fa7; stroke:none;" d="M616 419L632 419C629.48 410.128 618.547 410.147 616 419M649.044 413.028C638.252 418.765 646.02 437.337 657.956 430.972C668.639 425.275 660.144 407.127 649.044 413.028z"/>
<path style="fill:#5d7487; stroke:none;" d="M0 413C0.346323 424.664 11.5642 431.258 13 442C19.8935 445.809 22.3334 455.306 25.669 461.91C31.1228 472.71 38.5662 482.621 44.6219 493.039C46.4536 496.191 47.2591 499.803 49.0432 503C63.2618 528.476 77.5015 554.172 87.9969 581.428C89.9719 586.557 90.4132 591.786 91.8765 597C93.6803 603.427 96.4091 609.658 98.5154 616C109.602 649.381 120 684.501 120 720L125 720C125 701.362 123.844 682.051 118.633 664C116.7 657.3 112.452 651.625 110.609 644.996C109.336 640.421 109.316 635.577 107.958 631C106.384 625.699 103.21 621.064 101.548 615.911C94.7486 594.827 88.1088 573.289 78.7801 553.039C73.8262 542.286 67.8858 531.462 62.1273 521.089C60.3659 517.917 57.7455 515.315 56.2238 511.996C53.9361 507.008 53.8021 501.097 51.3488 496.17C48.2219 489.889 42.6697 484.007 38.8519 478.001C34.2671 470.788 32.1264 462.367 27.8657 455.039C25.8928 451.646 22.4964 449.432 20.5579 445.985C14.2719 434.809 9.11704 422.518 0 413z"/>
<path style="fill:#2e536b; stroke:none;" d="M1268.67 413.333C1268.22 413.778 1269.28 413.722 1269.33 413.667C1269.78 413.222 1268.72 413.278 1268.67 413.333z"/>
<path style="fill:#95aabd; stroke:none;" d="M602 415L602 418C602.696 416.446 602.696 416.554 602 415z"/>
<path style="fill:#a0b2c4; stroke:none;" d="M612 418L612 426C613.161 423.23 613.161 420.77 612 418z"/>
<path style="fill:#9aaec0; stroke:none;" d="M632 418C626.854 419.521 621.34 419 616 419C619.204 420.846 624.243 420.044 628 420C629.998 419.977 632.953 420.309 632 418z"/>
<path style="fill:#a0b2c4; stroke:none;" d="M635 418L635 422C635.71 420.24 635.71 419.759 635 418z"/>
<path style="fill:#586e80; stroke:none;" d="M0 419C0.418101 426.731 5.60136 432.652 9.57562 439C16.8352 450.595 24.0585 462.201 30.9892 474C53.4045 512.161 73.9804 551.697 90 593C91.3873 589.41 89.9074 585.82 88.6481 582.286C85.8448 574.42 81.8312 567.049 78.1667 559.576C75.5559 554.251 74.4797 548.315 71.7299 543.039C59.6584 519.879 46.305 497.439 33.8657 474.576C29.483 466.52 25.4425 457.47 20.3565 450C18.0674 446.638 17.0182 443.336 13 442C12.591 435.906 9.02879 432.901 5.87114 428C3.81679 424.811 2.79312 421.65 0 419z"/>
<path style="fill:#879eb3; stroke:none;" d="M640 419L640 424C640.83 421.97 640.83 421.03 640 419z"/>
<path style="fill:#aabaca; stroke:none;" d="M643 419L643 424C643.83 421.97 643.83 421.03 643 419z"/>
<path style="fill:#a0b2c4; stroke:none;" d="M679.667 419.333C679.222 419.778 680.278 419.722 680.333 419.667C680.778 419.222 679.722 419.278 679.667 419.333z"/>
<path style="fill:#879eb3; stroke:none;" d="M615 425C620.861 421.74 628.476 423 635 423C631.266 420.848 616.042 420.139 615 425z"/>
<path style="fill:#0c4160; stroke:none;" d="M1279 422C1239.56 440.449 1198.64 456.06 1159 474.178C1074.51 512.8 991.35 557.1 914 608.667C879.804 631.464 846.43 655.805 816.17 683.676C803.988 694.896 790.451 706.279 781 720L1280 720L1280 510L1280 449C1280 440.993 1282.1 429.399 1279 422M0 424L0 720L120 720C118.705 703.59 117.43 687.19 114.192 671C102.153 610.797 75.7015 553.526 46.3056 500C36.0966 481.411 25.5853 462.772 14 445C9.49907 438.095 5.64546 430.01 0 424z"/>
<path style="fill:#90a6ba; stroke:none;" d="M679.667 425.333C679.222 425.778 680.278 425.722 680.333 425.667C680.778 425.222 679.722 425.278 679.667 425.333z"/>
<path style="fill:#647c91; stroke:none;" d="M10 426C11.1271 431.191 14.2455 433.832 16.9159 438.17C18.5957 440.899 18.9647 444.184 20.5579 446.961C22.3335 450.055 25.3184 452.098 27.277 455.039C31.6908 461.668 33.6588 470.048 37.6196 477.004C41.5579 483.92 47.9463 490.054 51.3488 497.09C53.7552 502.065 53.9011 507.985 56.2238 512.985C57.6065 515.962 59.9703 518.276 61.6134 521.089C67.7233 531.55 73.7942 542.987 78.7801 554.015C87.9841 574.371 94.5543 595.766 101.548 616.83C103.264 622.001 106.376 626.672 107.958 632C109.315 636.572 109.322 641.419 110.609 645.985C112.47 652.593 116.699 658.295 118.633 665C123.741 682.702 125 701.717 125 720L128 720C128 712.269 127.203 704.682 127.015 697C126.888 691.836 127.671 686.265 126.741 681.17C124.422 668.471 118.647 656.454 115.325 644C101.092 590.636 78.6953 539.782 51.1535 491.985C42.9377 477.728 34.7623 463.679 26.2307 449.579C21.21 441.282 17.7701 432.285 10 426z"/>
<path style="fill:#90a6ba; stroke:none;" d="M641.333 426.667C641.278 426.722 641.222 427.778 641.667 427.333C641.722 427.278 641.778 426.222 641.333 426.667z"/>
<path style="fill:#8ca2b6; stroke:none;" d="M622 432C623.769 432.779 625.036 432.912 627 433C625.231 432.221 623.964 432.088 622 432M650 432C651.769 432.779 653.036 432.912 655 433C653.231 432.221 651.964 432.088 650 432z"/>
<path style="fill:#95aabd; stroke:none;" d="M622 435C623.769 435.779 625.036 435.912 627 436C625.231 435.221 623.964 435.088 622 435z"/>
<path style="fill:#9aaec0; stroke:none;" d="M650 435C651.769 435.779 653.036 435.912 655 436C653.231 435.221 651.964 435.088 650 435z"/>
<path style="fill:#6c869d; stroke:none;" d="M942 577C951.672 573.274 958.391 567.265 967.286 562.428C971.268 560.263 975.938 559.561 979.714 557.021C983.837 554.248 986.899 550.173 991.054 547.475C997.035 543.59 1003.59 542.401 1009.83 539.254C1018.01 535.13 1025.4 529.374 1033.46 525.129C1059.55 511.403 1086.62 499.657 1112.99 486.24C1121.9 481.704 1129.93 475.429 1139.04 470.959C1162.79 459.304 1187.28 449.632 1211 438C1205.63 435.905 1197.56 441.732 1192.58 443.965C1176.23 451.292 1158.91 457.417 1143.42 466.299C1134.42 471.465 1123.84 474.453 1114.58 479.198C1074.36 499.792 1034.28 520.385 995 542.719C981.424 550.438 967.525 557.145 954.961 566.1C950.191 569.499 944.753 571.578 942 577z"/>
<path style="fill:#5c7386; stroke:none;" d="M1044 528C1053.36 525.86 1061.63 519.901 1070 515.425C1079.67 510.252 1090.08 505.551 1100 500.784C1127.88 487.383 1155.44 473.605 1183.17 460.092C1187.63 457.919 1192.46 457.333 1197 455.483C1203.41 452.872 1208.88 449.088 1215 446C1210.82 444.781 1206.83 447.722 1203 449.333C1193.95 453.141 1185.09 457.552 1176 461.219C1172.1 462.793 1168.91 465.44 1164.99 466.915C1160.75 468.506 1156.07 468.635 1152 470.529C1126.68 482.33 1102.7 497.417 1077.83 510.019C1066.76 515.628 1050.81 515.578 1044 528z"/>
<path style="fill:#678095; stroke:none;" d="M812 677C821.078 672.689 828.426 663.831 836.174 657.556C849.944 646.401 864.544 637.104 878.741 626.68C884.737 622.277 889.956 616.67 896.286 612.62C905.653 606.626 915.75 601.55 924.996 595.251C935.114 588.357 944.719 580.54 955.17 574.056C978.42 559.63 1004.2 550.047 1028 536.752C1037.85 531.247 1046.45 524.083 1056.09 518.334C1061.01 515.398 1066.73 514.119 1071.74 511.381C1084.72 504.283 1097.78 496.955 1111 490C1104 487.068 1096.14 494.219 1090 497.244C1084.38 500.015 1078.8 503.286 1073 505.649C1070.49 506.671 1067.69 506.887 1065.29 508.132C1056.45 512.704 1047.81 518.011 1038.96 522.563C1028.85 527.768 1019.15 534.238 1008.91 539.254C1003.33 541.988 997.404 543.03 992.018 546.295C986.837 549.436 983.169 554.566 977.911 557.587C974.576 559.503 970.694 560.181 967.286 561.953C961.586 564.918 957.157 569.545 951.576 572.711C942.462 577.879 932.991 581.74 924.114 587.633C921.371 589.455 919.523 592.211 916.946 594.244C911.625 598.442 905.471 601.517 900.17 605.745C894.671 610.13 889.873 615.651 883.911 619.41C878.43 622.865 872.337 625.352 867 628.964C854.486 637.431 843.237 647.858 831.549 657.471C824.801 663.02 815.401 668.619 812 677z"/>
<path style="fill:#5a6f82; stroke:none;" d="M879 626C875.678 637.256 861.025 638.295 853.711 645.595C843.868 655.418 832.861 663.637 822.286 672.665C809.553 683.535 797.66 695.472 786.561 707.96C782.549 712.474 777.331 714.829 774 720C784.951 719.871 791.789 708.211 799 701C816.002 683.998 833.99 668.081 853 653.35C893.642 621.854 936.52 593.24 981 567.424C1009 551.174 1037.78 536.474 1066 520.688C1069.53 518.709 1072.45 515.918 1076 514C1070.53 512.505 1063.56 518.418 1059 521.136C1052.68 524.902 1045.62 526.582 1039 529.564C1034.36 531.653 1030.48 534.946 1026 537.279C1017.48 541.716 1008.47 545.25 1000 549.609C990.747 554.372 982.716 561.47 973.985 567.013C957.941 577.2 940.938 585.858 925.17 596.478C919.304 600.429 913.962 605.1 908 608.996C904.14 611.519 899.829 613.188 896.08 615.864C891.038 619.463 885.214 625.135 879 626z"/>
<path style="fill:#60778b; stroke:none;" d="M923 596C928.768 597.332 936.525 590.59 940.985 587.366C953.557 578.278 967.799 571.81 980.286 562.684C984.212 559.814 988.176 559.247 991 555C981.926 557.329 972.991 563.684 965 568.492C950.546 577.187 936.702 586.123 923 596z"/>
<path style="fill:#6c879d; stroke:none;" d="M760 719C771.934 724.008 776.333 713.666 782.873 706.001C790.527 697.031 799.555 688.989 807.669 680.401C825.386 661.65 845.982 644.524 867 629.666C873.18 625.297 880.435 622.755 886.572 618.239C899.116 609.009 911.212 598.584 923.255 588.846C927.287 585.586 932.269 583.38 936.572 580.497C940.666 577.754 943.986 574.055 948.004 571.208C951.835 568.494 955.934 566.604 959 563C951.999 565.216 946.158 569.722 939.999 573.575C928.923 580.503 917.874 587.417 907 594.667C869.144 619.904 833.384 647.354 799.424 677.594C789.084 686.802 779.768 697.408 770.455 707.579C766.933 711.426 764.082 715.708 760 719z"/>
<path style="fill:#61788c; stroke:none;" d="M881 626C886.982 624.357 892.626 618.759 897.754 615.265C905.876 609.731 918.422 606.368 923 597C916.3 598.971 910.791 603.558 905 607.329C899.723 610.765 894.37 613.251 889.421 617.246C885.994 620.012 882.343 621.644 881 626z"/>
<path style="fill:#637b8f; stroke:none;" d="M773 720C782.154 713.109 788.987 705.1 797.004 697C803.731 690.203 811.079 684.033 818.001 677.424C829.437 666.506 842.787 657.816 853.711 646.361C860.8 638.927 875.588 637.972 879 627C871.905 629.247 868.071 634.76 861.946 638.36C849.742 645.531 839.794 654.704 828.827 663.572C822.042 669.058 814.044 673.89 807.683 679.745C803.214 683.858 799.264 688.664 794.985 692.996C786.871 701.212 777.274 708.886 773 720z"/>
<path style="fill:#31566e; stroke:none;" d="M107.333 643.667C107.278 643.722 107.222 644.778 107.667 644.333C107.722 644.278 107.778 643.222 107.333 643.667z"/>
<path style="fill:#365971; stroke:none;" d="M112.333 663.667C112.278 663.722 112.222 664.778 112.667 664.333C112.722 664.278 112.778 663.222 112.333 663.667M115.333 678.667C115.278 678.722 115.222 679.778 115.667 679.333C115.722 679.278 115.778 678.222 115.333 678.667M117 690L117 693C117.696 691.446 117.696 691.554 117 690M118 697L118 701C118.71 699.241 118.71 698.759 118 697z"/>
<path style="fill:#234e69; stroke:none;" d="M119 708L119 716C120.161 713.23 120.161 710.77 119 708z"/>
</svg>
